# Wavefront OBJ file automatically generated by Tiled2Unity

# Vertices (Count = 336)
v -1408 -128 0
v -1472 -128 0
v -1472 -64 0
v -1408 -64 0
v -1344 -128 0
v -1344 -64 0
v -1280 -128 0
v -1280 -64 0
v -1216 -128 0
v -1216 -64 0
v -1152 -128 0
v -1152 -64 0
v -1088 -128 0
v -1088 -64 0
v -1024 -128 0
v -1024 -64 0
v -960 -128 0
v -960 -64 0
v -896 -128 0
v -896 -64 0
v -832 -128 0
v -832 -64 0
v -768 -128 0
v -768 -64 0
v -704 -128 0
v -704 -64 0
v -640 -128 0
v -640 -64 0
v -576 -128 0
v -576 -64 0
v -512 -128 0
v -512 -64 0
v -448 -128 0
v -448 -64 0
v -384 -128 0
v -384 -64 0
v -320 -128 0
v -320 -64 0
v -256 -128 0
v -256 -64 0
v -192 -128 0
v -192 -64 0
v -128 -128 0
v -128 -64 0
v -64 -128 0
v -64 -64 0
v 0 -128 0
v 0 -64 0
v -1408 -192 0
v -1472 -192 0
v -1344 -192 0
v -1280 -192 0
v -1216 -192 0
v -1152 -192 0
v -1088 -192 0
v -1024 -192 0
v -960 -192 0
v -896 -192 0
v -832 -192 0
v -768 -192 0
v -704 -192 0
v -640 -192 0
v -576 -192 0
v -512 -192 0
v -448 -192 0
v -384 -192 0
v -320 -192 0
v -256 -192 0
v -192 -192 0
v -128 -192 0
v -64 -192 0
v 0 -192 0
v -1408 -256 0
v -1472 -256 0
v -1344 -256 0
v -1280 -256 0
v -1216 -256 0
v -1152 -256 0
v -1088 -256 0
v -1024 -256 0
v -960 -256 0
v -896 -256 0
v -832 -256 0
v -768 -256 0
v -704 -256 0
v -640 -256 0
v -576 -256 0
v -512 -256 0
v -448 -256 0
v -384 -256 0
v -320 -256 0
v -256 -256 0
v -192 -256 0
v -128 -256 0
v -64 -256 0
v 0 -256 0
v -1408 -320 0
v -1472 -320 0
v -1344 -320 0
v -1280 -320 0
v -1216 -320 0
v -1152 -320 0
v -1088 -320 0
v -1024 -320 0
v -960 -320 0
v -896 -320 0
v -832 -320 0
v -768 -320 0
v -704 -320 0
v -640 -320 0
v -576 -320 0
v -512 -320 0
v -448 -320 0
v -384 -320 0
v -320 -320 0
v -256 -320 0
v -192 -320 0
v -128 -320 0
v -64 -320 0
v 0 -320 0
v -1408 -384 0
v -1472 -384 0
v -1344 -384 0
v -1280 -384 0
v -1216 -384 0
v -1152 -384 0
v -1088 -384 0
v -1024 -384 0
v -960 -384 0
v -896 -384 0
v -832 -384 0
v -768 -384 0
v -704 -384 0
v -640 -384 0
v -576 -384 0
v -512 -384 0
v -448 -384 0
v -384 -384 0
v -320 -384 0
v -256 -384 0
v -192 -384 0
v -128 -384 0
v -64 -384 0
v 0 -384 0
v -1408 -448 0
v -1472 -448 0
v -1344 -448 0
v -1280 -448 0
v -1216 -448 0
v -1152 -448 0
v -1088 -448 0
v -1024 -448 0
v -960 -448 0
v -896 -448 0
v -832 -448 0
v -768 -448 0
v -704 -448 0
v -640 -448 0
v -576 -448 0
v -512 -448 0
v -448 -448 0
v -384 -448 0
v -320 -448 0
v -256 -448 0
v -192 -448 0
v -128 -448 0
v -64 -448 0
v 0 -448 0
v -1408 -512 0
v -1472 -512 0
v -1344 -512 0
v -1280 -512 0
v -1216 -512 0
v -1152 -512 0
v -1088 -512 0
v -1024 -512 0
v -960 -512 0
v -896 -512 0
v -832 -512 0
v -768 -512 0
v -704 -512 0
v -640 -512 0
v -576 -512 0
v -512 -512 0
v -448 -512 0
v -384 -512 0
v -320 -512 0
v -256 -512 0
v -192 -512 0
v -128 -512 0
v -64 -512 0
v 0 -512 0
v -1408 -576 0
v -1472 -576 0
v -1344 -576 0
v -1280 -576 0
v -1216 -576 0
v -1152 -576 0
v -1088 -576 0
v -1024 -576 0
v -960 -576 0
v -896 -576 0
v -832 -576 0
v -768 -576 0
v -704 -576 0
v -640 -576 0
v -576 -576 0
v -512 -576 0
v -448 -576 0
v -384 -576 0
v -320 -576 0
v -256 -576 0
v -192 -576 0
v -128 -576 0
v -64 -576 0
v 0 -576 0
v -1408 -640 0
v -1472 -640 0
v -1344 -640 0
v -1280 -640 0
v -1216 -640 0
v -1152 -640 0
v -1088 -640 0
v -1024 -640 0
v -960 -640 0
v -896 -640 0
v -832 -640 0
v -768 -640 0
v -704 -640 0
v -640 -640 0
v -576 -640 0
v -512 -640 0
v -448 -640 0
v -384 -640 0
v -320 -640 0
v -256 -640 0
v -192 -640 0
v -128 -640 0
v -64 -640 0
v 0 -640 0
v -1408 -704 0
v -1472 -704 0
v -1344 -704 0
v -1280 -704 0
v -1216 -704 0
v -1152 -704 0
v -1088 -704 0
v -1024 -704 0
v -960 -704 0
v -896 -704 0
v -832 -704 0
v -768 -704 0
v -704 -704 0
v -640 -704 0
v -576 -704 0
v -512 -704 0
v -448 -704 0
v -384 -704 0
v -320 -704 0
v -256 -704 0
v -192 -704 0
v -128 -704 0
v -64 -704 0
v 0 -704 0
v -1408 -768 0
v -1472 -768 0
v -1344 -768 0
v -1280 -768 0
v -1216 -768 0
v -1152 -768 0
v -1088 -768 0
v -1024 -768 0
v -960 -768 0
v -896 -768 0
v -832 -768 0
v -768 -768 0
v -704 -768 0
v -640 -768 0
v -576 -768 0
v -512 -768 0
v -448 -768 0
v -384 -768 0
v -320 -768 0
v -256 -768 0
v -192 -768 0
v -128 -768 0
v -64 -768 0
v 0 -768 0
v -1408 -832 0
v -1472 -832 0
v -1344 -832 0
v -1280 -832 0
v -1216 -832 0
v -1152 -832 0
v -1088 -832 0
v -1024 -832 0
v -960 -832 0
v -896 -832 0
v -832 -832 0
v -768 -832 0
v -704 -832 0
v -640 -832 0
v -576 -832 0
v -512 -832 0
v -448 -832 0
v -384 -832 0
v -320 -832 0
v -256 -832 0
v -192 -832 0
v -128 -832 0
v -64 -832 0
v 0 -832 0
v -1408 -896 0
v -1472 -896 0
v -1344 -896 0
v -1280 -896 0
v -1216 -896 0
v -1152 -896 0
v -1088 -896 0
v -1024 -896 0
v -960 -896 0
v -896 -896 0
v -832 -896 0
v -768 -896 0
v -704 -896 0
v -640 -896 0
v -576 -896 0
v -512 -896 0
v -448 -896 0
v -384 -896 0
v -320 -896 0
v -256 -896 0
v -192 -896 0
v -128 -896 0
v -64 -896 0
v 0 -896 0

# Texture cooridinates (Count = 52)
vt 0.5157471 0.8751221
vt 0.7655029 0.8751221
vt 0.7655029 0.9998779
vt 0.5157471 0.9998779
vt 0.0001220703 0.8751221
vt 0.2498779 0.8751221
vt 0.2498779 0.9998779
vt 0.0001220703 0.9998779
vt 0.2579346 0.8751221
vt 0.5076904 0.8751221
vt 0.5076904 0.9998779
vt 0.2579346 0.9998779
vt 0.0001220703 0.3594971
vt 0.2498779 0.3594971
vt 0.2498779 0.4842529
vt 0.0001220703 0.4842529
vt 0.5157471 0.4884033
vt 0.7655029 0.4884033
vt 0.7655029 0.6131592
vt 0.5157471 0.6131592
vt 0.2579346 0.4884033
vt 0.5076904 0.4884033
vt 0.5076904 0.6131592
vt 0.2579346 0.6131592
vt 0.5157471 0.6173096
vt 0.7655029 0.6173096
vt 0.7655029 0.7420654
vt 0.5157471 0.7420654
vt 0.2579346 0.6173096
vt 0.5076904 0.6173096
vt 0.5076904 0.7420654
vt 0.2579346 0.7420654
vt 0.2579346 0.7462158
vt 0.5076904 0.7462158
vt 0.5076904 0.8709717
vt 0.2579346 0.8709717
vt 0.0001220703 0.7462158
vt 0.2498779 0.7462158
vt 0.2498779 0.8709717
vt 0.0001220703 0.8709717
vt 0.0001220703 0.6173096
vt 0.2498779 0.6173096
vt 0.2498779 0.7420654
vt 0.0001220703 0.7420654
vt 0.5157471 0.7462158
vt 0.7655029 0.7462158
vt 0.7655029 0.8709717
vt 0.5157471 0.8709717
vt 0.0001220703 0.4884033
vt 0.2498779 0.4884033
vt 0.2498779 0.6131592
vt 0.0001220703 0.6131592

# Normal
vn 0 0 -1

# Groups (Count = 2)

g mesh_0001
f 1/1/1 2/2/1 3/3/1 4/4/1
f 5/1/1 1/2/1 4/3/1 6/4/1
f 7/5/1 5/6/1 6/7/1 8/8/1
f 9/5/1 7/6/1 8/7/1 10/8/1
f 11/5/1 9/6/1 10/7/1 12/8/1
f 13/5/1 11/6/1 12/7/1 14/8/1
f 15/5/1 13/6/1 14/7/1 16/8/1
f 17/5/1 15/6/1 16/7/1 18/8/1
f 19/5/1 17/6/1 18/7/1 20/8/1
f 21/5/1 19/6/1 20/7/1 22/8/1
f 23/5/1 21/6/1 22/7/1 24/8/1
f 25/5/1 23/6/1 24/7/1 26/8/1
f 27/5/1 25/6/1 26/7/1 28/8/1
f 29/5/1 27/6/1 28/7/1 30/8/1
f 31/9/1 29/10/1 30/11/1 32/12/1
f 33/9/1 31/10/1 32/11/1 34/12/1
f 35/5/1 33/6/1 34/7/1 36/8/1
f 37/5/1 35/6/1 36/7/1 38/8/1
f 39/5/1 37/6/1 38/7/1 40/8/1
f 41/5/1 39/6/1 40/7/1 42/8/1
f 43/5/1 41/6/1 42/7/1 44/8/1
f 45/5/1 43/6/1 44/7/1 46/8/1
f 47/5/1 45/6/1 46/7/1 48/8/1
f 49/5/1 50/6/1 2/7/1 1/8/1
f 51/13/1 49/14/1 1/15/1 5/16/1
f 52/17/1 51/18/1 5/19/1 7/20/1
f 53/5/1 52/6/1 7/7/1 9/8/1
f 54/5/1 53/6/1 9/7/1 11/8/1
f 55/21/1 54/22/1 11/23/1 13/24/1
f 56/21/1 55/22/1 13/23/1 15/24/1
f 57/21/1 56/22/1 15/23/1 17/24/1
f 58/5/1 57/6/1 17/7/1 19/8/1
f 59/5/1 58/6/1 19/7/1 21/8/1
f 60/5/1 59/6/1 21/7/1 23/8/1
f 61/5/1 60/6/1 23/7/1 25/8/1
f 62/5/1 61/6/1 25/7/1 27/8/1
f 63/5/1 62/6/1 27/7/1 29/8/1
f 64/5/1 63/6/1 29/7/1 31/8/1
f 65/9/1 64/10/1 31/11/1 33/12/1
f 66/5/1 65/6/1 33/7/1 35/8/1
f 67/13/1 66/14/1 35/15/1 37/16/1
f 68/21/1 67/22/1 37/23/1 39/24/1
f 69/17/1 68/18/1 39/19/1 41/20/1
f 70/5/1 69/6/1 41/7/1 43/8/1
f 71/1/1 70/2/1 43/3/1 45/4/1
f 72/5/1 71/6/1 45/7/1 47/8/1
f 73/5/1 74/6/1 50/7/1 49/8/1
f 75/25/1 73/26/1 49/27/1 51/28/1
f 76/29/1 75/30/1 51/31/1 52/32/1
f 77/5/1 76/6/1 52/7/1 53/8/1
f 78/5/1 77/6/1 53/7/1 54/8/1
f 79/33/1 78/34/1 54/35/1 55/36/1
f 80/33/1 79/34/1 55/35/1 56/36/1
f 81/33/1 80/34/1 56/35/1 57/36/1
f 82/5/1 81/6/1 57/7/1 58/8/1
f 83/5/1 82/6/1 58/7/1 59/8/1
f 84/5/1 83/6/1 59/7/1 60/8/1
f 85/5/1 84/6/1 60/7/1 61/8/1
f 86/5/1 85/6/1 61/7/1 62/8/1
f 87/5/1 86/6/1 62/7/1 63/8/1
f 88/5/1 87/6/1 63/7/1 64/8/1
f 89/5/1 88/6/1 64/7/1 65/8/1
f 90/5/1 89/6/1 65/7/1 66/8/1
f 91/25/1 90/26/1 66/27/1 67/28/1
f 92/37/1 91/38/1 67/39/1 68/40/1
f 93/29/1 92/30/1 68/31/1 69/32/1
f 94/5/1 93/6/1 69/7/1 70/8/1
f 95/1/1 94/2/1 70/3/1 71/4/1
f 96/5/1 95/6/1 71/7/1 72/8/1
f 97/5/1 98/6/1 74/7/1 73/8/1
f 99/25/1 97/26/1 73/27/1 75/28/1
f 100/29/1 99/30/1 75/31/1 76/32/1
f 101/5/1 100/6/1 76/7/1 77/8/1
f 102/5/1 101/6/1 77/7/1 78/8/1
f 103/1/1 102/2/1 78/3/1 79/4/1
f 104/1/1 103/2/1 79/3/1 80/4/1
f 105/5/1 104/6/1 80/7/1 81/8/1
f 106/5/1 105/6/1 81/7/1 82/8/1
f 107/5/1 106/6/1 82/7/1 83/8/1
f 108/5/1 107/6/1 83/7/1 84/8/1
f 109/5/1 108/6/1 84/7/1 85/8/1
f 110/5/1 109/6/1 85/7/1 86/8/1
f 111/5/1 110/6/1 86/7/1 87/8/1
f 112/5/1 111/6/1 87/7/1 88/8/1
f 113/5/1 112/6/1 88/7/1 89/8/1
f 114/5/1 113/6/1 89/7/1 90/8/1
f 115/41/1 114/42/1 90/43/1 91/44/1
f 116/33/1 115/34/1 91/35/1 92/36/1
f 117/45/1 116/46/1 92/47/1 93/48/1
f 118/5/1 117/6/1 93/7/1 94/8/1
f 119/5/1 118/6/1 94/7/1 95/8/1
f 120/5/1 119/6/1 95/7/1 96/8/1
f 121/5/1 122/6/1 98/7/1 97/8/1
f 123/41/1 121/42/1 97/43/1 99/44/1
f 124/45/1 123/46/1 99/47/1 100/48/1
f 125/5/1 124/6/1 100/7/1 101/8/1
f 126/5/1 125/6/1 101/7/1 102/8/1
f 127/5/1 126/6/1 102/7/1 103/8/1
f 128/5/1 127/6/1 103/7/1 104/8/1
f 129/5/1 128/6/1 104/7/1 105/8/1
f 130/1/1 129/2/1 105/3/1 106/4/1
f 131/1/1 130/2/1 106/3/1 107/4/1
f 132/1/1 131/2/1 107/3/1 108/4/1
f 133/1/1 132/2/1 108/3/1 109/4/1
f 134/1/1 133/2/1 109/3/1 110/4/1
f 135/1/1 134/2/1 110/3/1 111/4/1
f 136/1/1 135/2/1 111/3/1 112/4/1
f 137/5/1 136/6/1 112/7/1 113/8/1
f 138/5/1 137/6/1 113/7/1 114/8/1
f 139/5/1 138/6/1 114/7/1 115/8/1
f 140/5/1 139/6/1 115/7/1 116/8/1
f 141/5/1 140/6/1 116/7/1 117/8/1
f 142/5/1 141/6/1 117/7/1 118/8/1
f 143/5/1 142/6/1 118/7/1 119/8/1
f 144/5/1 143/6/1 119/7/1 120/8/1
f 145/5/1 146/6/1 122/7/1 121/8/1
f 147/5/1 145/6/1 121/7/1 123/8/1
f 148/5/1 147/6/1 123/7/1 124/8/1
f 149/21/1 148/22/1 124/23/1 125/24/1
f 150/21/1 149/22/1 125/23/1 126/24/1
f 151/21/1 150/22/1 126/23/1 127/24/1
f 152/5/1 151/6/1 127/7/1 128/8/1
f 153/13/1 152/14/1 128/15/1 129/16/1
f 154/21/1 153/22/1 129/23/1 130/24/1
f 155/5/1 154/6/1 130/7/1 131/8/1
f 156/5/1 155/6/1 131/7/1 132/8/1
f 157/5/1 156/6/1 132/7/1 133/8/1
f 158/5/1 157/6/1 133/7/1 134/8/1
f 159/5/1 158/6/1 134/7/1 135/8/1
f 160/5/1 159/6/1 135/7/1 136/8/1
f 161/17/1 160/18/1 136/19/1 137/20/1
f 162/5/1 161/6/1 137/7/1 138/8/1
f 163/5/1 162/6/1 138/7/1 139/8/1
f 164/5/1 163/6/1 139/7/1 140/8/1
f 165/5/1 164/6/1 140/7/1 141/8/1
f 166/1/1 165/2/1 141/3/1 142/4/1
f 167/5/1 166/6/1 142/7/1 143/8/1
f 168/5/1 167/6/1 143/7/1 144/8/1
f 169/5/1 170/6/1 146/7/1 145/8/1
f 171/5/1 169/6/1 145/7/1 147/8/1
f 172/5/1 171/6/1 147/7/1 148/8/1
f 173/33/1 172/34/1 148/35/1 149/36/1
f 174/33/1 173/34/1 149/35/1 150/36/1
f 175/33/1 174/34/1 150/35/1 151/36/1
f 176/5/1 175/6/1 151/7/1 152/8/1
f 177/25/1 176/26/1 152/27/1 153/28/1
f 178/37/1 177/38/1 153/39/1 154/40/1
f 179/37/1 178/38/1 154/39/1 155/40/1
f 180/37/1 179/38/1 155/39/1 156/40/1
f 181/37/1 180/38/1 156/39/1 157/40/1
f 182/37/1 181/38/1 157/39/1 158/40/1
f 183/37/1 182/38/1 158/39/1 159/40/1
f 184/37/1 183/38/1 159/39/1 160/40/1
f 185/29/1 184/30/1 160/31/1 161/32/1
f 186/5/1 185/6/1 161/7/1 162/8/1
f 187/5/1 186/6/1 162/7/1 163/8/1
f 188/5/1 187/6/1 163/7/1 164/8/1
f 189/5/1 188/6/1 164/7/1 165/8/1
f 190/5/1 189/6/1 165/7/1 166/8/1
f 191/5/1 190/6/1 166/7/1 167/8/1
f 192/5/1 191/6/1 167/7/1 168/8/1
f 193/5/1 194/6/1 170/7/1 169/8/1
f 195/5/1 193/6/1 169/7/1 171/8/1
f 196/5/1 195/6/1 171/7/1 172/8/1
f 197/5/1 196/6/1 172/7/1 173/8/1
f 198/5/1 197/6/1 173/7/1 174/8/1
f 199/5/1 198/6/1 174/7/1 175/8/1
f 200/5/1 199/6/1 175/7/1 176/8/1
f 201/25/1 200/26/1 176/27/1 177/28/1
f 202/37/1 201/38/1 177/39/1 178/40/1
f 203/37/1 202/38/1 178/39/1 179/40/1
f 204/37/1 203/38/1 179/39/1 180/40/1
f 205/37/1 204/38/1 180/39/1 181/40/1
f 206/37/1 205/38/1 181/39/1 182/40/1
f 207/37/1 206/38/1 182/39/1 183/40/1
f 208/37/1 207/38/1 183/39/1 184/40/1
f 209/29/1 208/30/1 184/31/1 185/32/1
f 210/5/1 209/6/1 185/7/1 186/8/1
f 211/5/1 210/6/1 186/7/1 187/8/1
f 212/5/1 211/6/1 187/7/1 188/8/1
f 213/5/1 212/6/1 188/7/1 189/8/1
f 214/5/1 213/6/1 189/7/1 190/8/1
f 215/25/1 214/26/1 190/27/1 191/28/1
f 216/29/1 215/30/1 191/31/1 192/32/1
f 217/5/1 218/6/1 194/7/1 193/8/1
f 219/1/1 217/2/1 193/3/1 195/4/1
f 220/5/1 219/6/1 195/7/1 196/8/1
f 221/5/1 220/6/1 196/7/1 197/8/1
f 222/5/1 221/6/1 197/7/1 198/8/1
f 223/5/1 222/6/1 198/7/1 199/8/1
f 224/5/1 223/6/1 199/7/1 200/8/1
f 225/25/1 224/26/1 200/27/1 201/28/1
f 226/37/1 225/38/1 201/39/1 202/40/1
f 227/37/1 226/38/1 202/39/1 203/40/1
f 228/37/1 227/38/1 203/39/1 204/40/1
f 229/37/1 228/38/1 204/39/1 205/40/1
f 230/37/1 229/38/1 205/39/1 206/40/1
f 231/37/1 230/38/1 206/39/1 207/40/1
f 232/37/1 231/38/1 207/39/1 208/40/1
f 233/29/1 232/30/1 208/31/1 209/32/1
f 234/5/1 233/6/1 209/7/1 210/8/1
f 235/5/1 234/6/1 210/7/1 211/8/1
f 236/5/1 235/6/1 211/7/1 212/8/1
f 237/1/1 236/2/1 212/3/1 213/4/1
f 238/5/1 237/6/1 213/7/1 214/8/1
f 239/25/1 238/26/1 214/27/1 215/28/1
f 240/29/1 239/30/1 215/31/1 216/32/1
f 241/5/1 242/6/1 218/7/1 217/8/1
f 243/1/1 241/2/1 217/3/1 219/4/1
f 244/5/1 243/6/1 219/7/1 220/8/1
f 245/5/1 244/6/1 220/7/1 221/8/1
f 246/5/1 245/6/1 221/7/1 222/8/1
f 247/5/1 246/6/1 222/7/1 223/8/1
f 248/5/1 247/6/1 223/7/1 224/8/1
f 249/41/1 248/42/1 224/43/1 225/44/1
f 250/33/1 249/34/1 225/35/1 226/36/1
f 251/33/1 250/34/1 226/35/1 227/36/1
f 252/33/1 251/34/1 227/35/1 228/36/1
f 253/33/1 252/34/1 228/35/1 229/36/1
f 254/33/1 253/34/1 229/35/1 230/36/1
f 255/37/1 254/38/1 230/39/1 231/40/1
f 256/37/1 255/38/1 231/39/1 232/40/1
f 257/45/1 256/46/1 232/47/1 233/48/1
f 258/5/1 257/6/1 233/7/1 234/8/1
f 259/5/1 258/6/1 234/7/1 235/8/1
f 260/5/1 259/6/1 235/7/1 236/8/1
f 261/5/1 260/6/1 236/7/1 237/8/1
f 262/5/1 261/6/1 237/7/1 238/8/1
f 263/25/1 262/26/1 238/27/1 239/28/1
f 264/29/1 263/30/1 239/31/1 240/32/1
f 265/5/1 266/6/1 242/7/1 241/8/1
f 267/5/1 265/6/1 241/7/1 243/8/1
f 268/5/1 267/6/1 243/7/1 244/8/1
f 269/13/1 268/14/1 244/15/1 245/16/1
f 270/49/1 269/50/1 245/51/1 246/52/1
f 271/21/1 270/22/1 246/23/1 247/24/1
f 272/17/1 271/18/1 247/19/1 248/20/1
f 273/25/1 272/26/1 248/27/1 249/28/1
f 274/37/1 273/38/1 249/39/1 250/40/1
f 275/37/1 274/38/1 250/39/1 251/40/1
f 276/37/1 275/38/1 251/39/1 252/40/1
f 277/37/1 276/38/1 252/39/1 253/40/1
f 278/37/1 277/38/1 253/39/1 254/40/1
f 279/37/1 278/38/1 254/39/1 255/40/1
f 280/37/1 279/38/1 255/39/1 256/40/1
f 281/29/1 280/30/1 256/31/1 257/32/1
f 282/5/1 281/6/1 257/7/1 258/8/1
f 283/5/1 282/6/1 258/7/1 259/8/1
f 284/5/1 283/6/1 259/7/1 260/8/1
f 285/5/1 284/6/1 260/7/1 261/8/1
f 286/5/1 285/6/1 261/7/1 262/8/1
f 287/5/1 286/6/1 262/7/1 263/8/1
f 288/5/1 287/6/1 263/7/1 264/8/1
f 289/21/1 290/22/1 266/23/1 265/24/1
f 291/17/1 289/18/1 265/19/1 267/20/1
f 292/5/1 291/6/1 267/7/1 268/8/1
f 293/41/1 292/42/1 268/43/1 269/44/1
f 294/33/1 293/34/1 269/35/1 270/36/1
f 295/49/1 294/50/1 270/51/1 271/52/1
f 296/45/1 295/46/1 271/47/1 272/48/1
f 297/5/1 296/6/1 272/7/1 273/8/1
f 298/5/1 297/6/1 273/7/1 274/8/1
f 299/5/1 298/6/1 274/7/1 275/8/1
f 300/5/1 299/6/1 275/7/1 276/8/1
f 301/5/1 300/6/1 276/7/1 277/8/1
f 302/5/1 301/6/1 277/7/1 278/8/1
f 303/5/1 302/6/1 278/7/1 279/8/1
f 304/37/1 303/38/1 279/39/1 280/40/1
f 305/29/1 304/30/1 280/31/1 281/32/1
f 306/9/1 305/10/1 281/11/1 282/12/1
f 307/5/1 306/6/1 282/7/1 283/8/1
f 308/5/1 307/6/1 283/7/1 284/8/1
f 309/5/1 308/6/1 284/7/1 285/8/1
f 310/5/1 309/6/1 285/7/1 286/8/1
f 311/1/1 310/2/1 286/3/1 287/4/1
f 312/5/1 311/6/1 287/7/1 288/8/1
f 313/41/1 314/42/1 290/43/1 289/44/1
f 315/33/1 313/34/1 289/35/1 291/36/1
f 316/5/1 315/6/1 291/7/1 292/8/1
f 317/5/1 316/6/1 292/7/1 293/8/1
f 318/5/1 317/6/1 293/7/1 294/8/1
f 319/5/1 318/6/1 294/7/1 295/8/1
f 320/5/1 319/6/1 295/7/1 296/8/1
f 321/5/1 320/6/1 296/7/1 297/8/1
f 322/5/1 321/6/1 297/7/1 298/8/1
f 323/5/1 322/6/1 298/7/1 299/8/1
f 324/5/1 323/6/1 299/7/1 300/8/1
f 325/5/1 324/6/1 300/7/1 301/8/1
f 326/5/1 325/6/1 301/7/1 302/8/1
f 327/5/1 326/6/1 302/7/1 303/8/1
f 328/37/1 327/38/1 303/39/1 304/40/1
f 329/29/1 328/30/1 304/31/1 305/32/1
f 330/5/1 329/6/1 305/7/1 306/8/1
f 331/5/1 330/6/1 306/7/1 307/8/1
f 332/5/1 331/6/1 307/7/1 308/8/1
f 333/5/1 332/6/1 308/7/1 309/8/1
f 334/5/1 333/6/1 309/7/1 310/8/1
f 335/5/1 334/6/1 310/7/1 311/8/1
f 336/5/1 335/6/1 311/7/1 312/8/1

g mesh_0002
f 55/49/1 54/50/1 11/51/1 13/52/1
f 75/49/1 73/50/1 49/51/1 51/52/1
f 81/49/1 80/50/1 56/51/1 57/52/1
f 92/49/1 91/50/1 67/51/1 68/52/1
f 99/49/1 97/50/1 73/51/1 75/52/1
f 100/49/1 99/50/1 75/51/1 76/52/1
f 153/13/1 152/14/1 128/15/1 129/16/1
f 154/21/1 153/22/1 129/23/1 130/24/1
f 155/21/1 154/22/1 130/23/1 131/24/1
f 156/21/1 155/22/1 131/23/1 132/24/1
f 157/21/1 156/22/1 132/23/1 133/24/1
f 158/21/1 157/22/1 133/23/1 134/24/1
f 159/21/1 158/22/1 134/23/1 135/24/1
f 160/21/1 159/22/1 135/23/1 136/24/1
f 161/17/1 160/18/1 136/19/1 137/20/1
f 173/9/1 172/10/1 148/11/1 149/12/1
f 175/9/1 174/10/1 150/11/1 151/12/1
f 177/25/1 176/26/1 152/27/1 153/28/1
f 178/37/1 177/38/1 153/39/1 154/40/1
f 179/37/1 178/38/1 154/39/1 155/40/1
f 180/37/1 179/38/1 155/39/1 156/40/1
f 181/37/1 180/38/1 156/39/1 157/40/1
f 182/37/1 181/38/1 157/39/1 158/40/1
f 183/37/1 182/38/1 158/39/1 159/40/1
f 184/37/1 183/38/1 159/39/1 160/40/1
f 185/29/1 184/30/1 160/31/1 161/32/1
f 201/25/1 200/26/1 176/27/1 177/28/1
f 202/37/1 201/38/1 177/39/1 178/40/1
f 203/37/1 202/38/1 178/39/1 179/40/1
f 204/37/1 203/38/1 179/39/1 180/40/1
f 205/37/1 204/38/1 180/39/1 181/40/1
f 206/37/1 205/38/1 181/39/1 182/40/1
f 207/37/1 206/38/1 182/39/1 183/40/1
f 208/37/1 207/38/1 183/39/1 184/40/1
f 209/29/1 208/30/1 184/31/1 185/32/1
f 226/37/1 225/38/1 201/39/1 202/40/1
f 227/37/1 226/38/1 202/39/1 203/40/1
f 228/37/1 227/38/1 203/39/1 204/40/1
f 229/37/1 228/38/1 204/39/1 205/40/1
f 230/37/1 229/38/1 205/39/1 206/40/1
f 231/37/1 230/38/1 206/39/1 207/40/1
f 239/49/1 238/50/1 214/51/1 215/52/1
f 249/41/1 248/42/1 224/43/1 225/44/1
f 250/33/1 249/34/1 225/35/1 226/36/1
f 251/33/1 250/34/1 226/35/1 227/36/1
f 252/33/1 251/34/1 227/35/1 228/36/1
f 253/33/1 252/34/1 228/35/1 229/36/1
f 254/33/1 253/34/1 229/35/1 230/36/1
f 255/33/1 254/34/1 230/35/1 231/36/1
f 256/33/1 255/34/1 231/35/1 232/36/1
f 257/45/1 256/46/1 232/47/1 233/48/1
f 264/49/1 263/50/1 239/51/1 240/52/1
f 273/5/1 272/6/1 248/7/1 249/8/1
f 274/5/1 273/6/1 249/7/1 250/8/1
f 275/5/1 274/6/1 250/7/1 251/8/1
f 276/5/1 275/6/1 251/7/1 252/8/1
f 277/5/1 276/6/1 252/7/1 253/8/1
f 278/5/1 277/6/1 253/7/1 254/8/1
f 279/5/1 278/6/1 254/7/1 255/8/1
f 280/5/1 279/6/1 255/7/1 256/8/1
f 281/5/1 280/6/1 256/7/1 257/8/1
f 291/49/1 289/50/1 265/51/1 267/52/1
f 297/5/1 296/6/1 272/7/1 273/8/1
f 298/5/1 297/6/1 273/7/1 274/8/1
f 299/5/1 298/6/1 274/7/1 275/8/1
f 300/5/1 299/6/1 275/7/1 276/8/1
f 301/5/1 300/6/1 276/7/1 277/8/1
f 302/5/1 301/6/1 277/7/1 278/8/1
f 303/5/1 302/6/1 278/7/1 279/8/1
f 304/5/1 303/6/1 279/7/1 280/8/1
f 305/5/1 304/6/1 280/7/1 281/8/1
f 313/49/1 314/50/1 290/51/1 289/52/1
f 321/5/1 320/6/1 296/7/1 297/8/1
f 322/5/1 321/6/1 297/7/1 298/8/1
f 323/5/1 322/6/1 298/7/1 299/8/1
f 324/5/1 323/6/1 299/7/1 300/8/1
f 325/5/1 324/6/1 300/7/1 301/8/1
f 326/5/1 325/6/1 301/7/1 302/8/1
f 327/5/1 326/6/1 302/7/1 303/8/1
f 328/5/1 327/6/1 303/7/1 304/8/1
f 329/5/1 328/6/1 304/7/1 305/8/1

